<?xml version="1.0" encoding="UTF-8" standalone="no"?>
<svg
   viewBox="0 0 19.2 19.2"
   id="instagram"
   version="1.1"
   sodipodi:docname="instagram.svg"
   inkscape:version="1.3.2 (091e20e, 2023-11-25, custom)"
   xmlns:inkscape="http://www.inkscape.org/namespaces/inkscape"
   xmlns:sodipodi="http://sodipodi.sourceforge.net/DTD/sodipodi-0.dtd"
   xmlns="http://www.w3.org/2000/svg"
   xmlns:svg="http://www.w3.org/2000/svg">
  <defs
     id="defs2" />
  <sodipodi:namedview
     id="namedview2"
     pagecolor="#ffffff"
     bordercolor="#000000"
     borderopacity="0.25"
     inkscape:showpageshadow="2"
     inkscape:pageopacity="0.0"
     inkscape:pagecheckerboard="0"
     inkscape:deskcolor="#d1d1d1"
     inkscape:zoom="42.760415"
     inkscape:cx="9.5883073"
     inkscape:cy="3.9873327"
     inkscape:window-width="1920"
     inkscape:window-height="1017"
     inkscape:window-x="-8"
     inkscape:window-y="-8"
     inkscape:window-maximized="1"
     inkscape:current-layer="instagram" />
  <path
     d="M13.498 6.651a1.656 1.656 0 0 0-.95-.949 2.766 2.766 0 0 0-.928-.172c-.527-.024-.685-.03-2.02-.03s-1.493.006-2.02.03a2.766 2.766 0 0 0-.929.172 1.656 1.656 0 0 0-.949.95 2.766 2.766 0 0 0-.172.928c-.024.527-.03.685-.03 2.02s.006 1.493.03 2.02a2.766 2.766 0 0 0 .172.929 1.656 1.656 0 0 0 .95.949 2.766 2.766 0 0 0 .928.172c.527.024.685.03 2.02.03s1.493-.006 2.02-.03a2.766 2.766 0 0 0 .929-.172 1.656 1.656 0 0 0 .949-.95 2.766 2.766 0 0 0 .172-.928c.024-.527.03-.685.03-2.02s-.006-1.493-.03-2.02a2.766 2.766 0 0 0-.172-.929zM9.6 12.168A2.568 2.568 0 1 1 12.168 9.6 2.568 2.568 0 0 1 9.6 12.168zm2.669-4.637a.6.6 0 1 1 .6-.6.6.6 0 0 1-.6.6z"
     id="path1"
     style="fill:#8c8c8c;fill-opacity:1" />
  <circle
     cx="9.6"
     cy="9.6"
     r="1.667"
     id="circle1"
     style="fill:#8c8c8c;fill-opacity:1" />
  <path
     d="M9.6 0a9.6 9.6 0 1 0 9.6 9.6A9.6 9.6 0 0 0 9.6 0zm4.97 11.662a3.67 3.67 0 0 1-.233 1.213 2.556 2.556 0 0 1-1.462 1.462 3.67 3.67 0 0 1-1.213.233c-.534.024-.704.03-2.062.03s-1.528-.006-2.062-.03a3.67 3.67 0 0 1-1.213-.233 2.556 2.556 0 0 1-1.462-1.462 3.67 3.67 0 0 1-.233-1.213c-.024-.534-.03-.704-.03-2.062s.006-1.528.03-2.062a3.67 3.67 0 0 1 .233-1.213 2.556 2.556 0 0 1 1.462-1.462 3.67 3.67 0 0 1 1.213-.233c.534-.024.704-.03 2.062-.03s1.528.006 2.062.03a3.67 3.67 0 0 1 1.213.233 2.556 2.556 0 0 1 1.462 1.462 3.67 3.67 0 0 1 .233 1.213c.024.534.03.704.03 2.062s-.006 1.528-.03 2.062z"
     id="path2"
     style="fill:#8c8c8c;fill-opacity:1" />
</svg>
